<svg width="14" height="10" viewBox="0 0 14 10" fill="none" xmlns="http://www.w3.org/2000/svg">
<path d="M6.48322 6.15767C6.76826 6.44187 7.22952 6.44187 7.51456 6.15767L13.1647 0.507501C13.243 0.429548 13.2705 0.31409 13.2358 0.20924C13.2011 0.104389 13.1101 0.0281344 13.0008 0.0122509C12.9454 0.00408334 12.8894 -1.09589e-05 12.8334 8.58058e-07H1.16672C1.11031 -6.81581e-05 1.05396 0.00402629 0.998141 0.0122509C0.888846 0.0281344 0.797896 0.104389 0.763193 0.20924C0.72849 0.31409 0.755987 0.429548 0.834225 0.507501L6.48322 6.15767Z" fill="#02676B"/>
<path d="M13.9347 1.06875C13.8948 1.05181 13.8486 1.06082 13.818 1.0915L10.2013 4.70817C10.1445 4.76528 10.1445 4.85755 10.2013 4.91467L13.1431 7.85642C13.2569 7.96621 13.3026 8.12885 13.2626 8.28183C13.2226 8.43481 13.1032 8.55433 12.9503 8.59444C12.7973 8.63455 12.6346 8.58901 12.5247 8.47533L9.583 5.53358C9.55564 5.50616 9.51849 5.49074 9.47975 5.49074C9.44101 5.49074 9.40386 5.50616 9.3765 5.53358L8.13458 6.7755C7.50819 7.40154 6.49298 7.40154 5.86658 6.7755L4.6235 5.53475C4.56639 5.47795 4.47411 5.47795 4.417 5.53475L1.47525 8.4765C1.30351 8.64222 1.03063 8.63972 0.861955 8.47088C0.693275 8.30205 0.691034 8.02917 0.856917 7.85758L3.79867 4.91583C3.85547 4.85872 3.85547 4.76645 3.79867 4.70933L0.182 1.09267C0.15156 1.06168 0.105184 1.05264 0.0653333 1.06992C0.0261597 1.08624 0.000467412 1.12432 0 1.16675V8.16675C0 8.81108 0.522334 9.33342 1.16667 9.33342H12.8333C13.4777 9.33342 14 8.81108 14 8.16675V1.16675C14.0002 1.12384 13.9743 1.08511 13.9347 1.06875Z" fill="#02676B"/>
</svg>
