<svg xmlns="http://www.w3.org/2000/svg" viewBox="0 0 24 24" fill="currentColor" width="40" height="40" data-ux="IconSocial" class="x-el x-el-svg c1-1 c1-2 c1-24 c1-2a c1-2v c1-8f c1-8g c1-4w c1-b c1-c c1-8h c1-8i c1-d c1-8j c1-8k c1-8l c1-8m c1-70 c1-8n c1-8o c1-8p c1-e c1-f c1-g"><g><path d="M22 12c0-5.523-4.477-10-10-10S2 6.477 2 12c0 4.991 3.657 9.128 8.438 9.878v-6.987h-2.54V12h2.54V9.797c0-2.506 1.492-3.89 3.777-3.89 1.093 0 2.238.195 2.238.195v2.46h-1.26c-1.243 0-1.63.771-1.63 1.563V12h2.773l-.443 2.89h-2.33v6.988C18.343 21.128 22 16.991 22 12z" fill="#1877F2"/><path d="M15.893 14.89l.443-2.89h-2.773v-1.875c0-.79.387-1.563 1.63-1.563h1.26v-2.46s-1.144-.196-2.238-.196c-2.284 0-3.777 1.385-3.777 3.89V12h-2.54v2.89h2.54v6.988a10.04 10.04 0 003.124 0v-6.987h2.33z" fill="#fff"/></g></svg>