<svg width="12" height="12" viewBox="0 0 12 12" fill="none" xmlns="http://www.w3.org/2000/svg">
<path d="M11.3365 8.50447L10.1105 7.27797C9.84679 7.01383 9.48891 6.8654 9.1157 6.8654C8.74249 6.8654 8.38461 7.01383 8.12095 7.27797L7.87095 7.52797C6.63882 6.4956 5.5007 5.35596 4.46995 4.12247L4.71995 3.87247C5.26806 3.32275 5.26806 2.43319 4.71995 1.88347L3.49145 0.65847C2.93431 0.126213 2.05709 0.126213 1.49995 0.65847L0.829951 1.33147C0.166362 1.99984 0.0620397 3.04181 0.579951 3.82847C2.5775 6.83838 5.15693 9.41833 8.16645 11.4165C8.95538 11.9294 9.9947 11.8254 10.6665 11.1665L11.339 10.4935C11.603 10.23 11.7514 9.87226 11.7514 9.49922C11.7514 9.12617 11.603 8.76846 11.339 8.50497L11.3365 8.50447Z" fill="#02676B"/>
</svg>
