<svg xmlns="http://www.w3.org/2000/svg" viewBox="0 0 24 24" fill="currentColor" width="40" height="40" data-ux="IconSocial" class="x-el x-el-svg c1-1 c1-2 c1-1x c1-13 c1-34 c1-9u c1-dp c1-3e c1-b c1-6z"><g><path d="M12 2C6.477 2 2 6.477 2 12s4.477 10 10 10 10-4.477 10-10A10 10 0 0012 2z" fill="#FF0000"/><path fill-rule="evenodd" d="M17.607 14.302s.066-.931.066-1.866l.003-.88c0-.93-.069-1.865-.069-1.865a2.363 2.363 0 00-.436-1.146 1.702 1.702 0 00-1.16-.52c-1.615-.116-4.025-.149-4.025-.149s-2.422.033-4.037.15c-.436.012-.85.193-1.156.505-.335.349-.364 1.153-.364 1.153s-.033.942-.033 1.876v.884c0 .93.033 1.865.033 1.865.033.413.177.809.418 1.146.344.31.788.484 1.251.49.924.088 3.913.117 3.913.117s2.418-.004 4.033-.12c.433-.004.847-.18 1.152-.488.242-.338.384-.737.411-1.152zm-3.68-2.422l-3.116 1.614-.004-3.24 3.12 1.626z" fill="#fff"/></g></svg>